<?xml version="1.0" standalone="no"?>
<!DOCTYPE svg PUBLIC "-//W3C//DTD SVG 20010904//EN"
 "http://www.w3.org/TR/2001/REC-SVG-20010904/DTD/svg10.dtd">
<svg version="1.0" xmlns="http://www.w3.org/2000/svg"
 width="500.000000pt" height="500.000000pt" viewBox="0 0 500.000000 500.000000"
 preserveAspectRatio="xMidYMid meet">
<metadata>
Created by potrace 1.14, written by Peter Selinger 2001-2017
</metadata>
<g transform="translate(0.000000,500.000000) scale(0.100000,-0.100000)"
fill="#000000" stroke="none">
<path d="M1131 4306 c-53 -29 -50 32 -51 -1322 0 -1255 0 -1261 20 -1287 20
-25 1320 -990 1369 -1017 13 -6 38 -10 56 -7 22 4 243 161 706 502 371 273
682 507 691 519 16 20 18 103 18 1292 l0 1272 -29 31 -29 31 -1364 0 c-1112
-1 -1367 -3 -1387 -14z m1878 -933 c66 -34 114 -97 130 -173 7 -32 11 -192 11
-420 0 -337 -2 -374 -20 -431 -10 -34 -17 -66 -14 -71 3 -4 18 -8 35 -8 l29 0
0 -90 0 -90 -47 6 c-61 8 -110 31 -129 60 -14 20 -19 21 -52 12 -20 -6 -75 -8
-122 -6 -99 5 -152 27 -199 85 -63 76 -64 89 -69 515 -4 424 0 459 55 541 72
104 259 138 392 70z m-707 2 c24 -9 61 -32 81 -53 54 -55 67 -104 67 -246 0
-157 -16 -216 -74 -271 l-42 -41 31 -19 c16 -11 41 -42 55 -70 23 -47 25 -63
31 -255 4 -113 10 -215 14 -228 l8 -23 -99 3 c-95 3 -98 4 -105 28 -4 14 -7
104 -8 200 -1 145 -4 181 -19 210 -19 40 -61 59 -129 59 l-43 1 0 -250 0 -250
-95 0 -95 0 0 610 0 610 188 0 c143 0 199 -4 234 -15z m-393 -1419 c9 -10 9
-20 2 -34 -7 -13 -6 -26 4 -45 11 -22 11 -27 0 -27 -7 0 -16 11 -19 25 -4 14
-14 25 -22 25 -12 0 -15 -7 -12 -25 4 -18 1 -25 -11 -25 -13 0 -16 11 -16 60
l0 60 31 0 c17 0 37 -6 43 -14z m137 -49 c21 -54 21 -57 4 -57 -13 0 -17 5
-13 21 5 18 2 20 -23 17 -20 -2 -29 -8 -28 -20 1 -12 -5 -18 -18 -18 -15 0
-18 3 -11 13 6 6 18 34 28 60 10 26 23 46 29 44 6 -2 20 -29 32 -60z m102 32
c36 -65 44 -68 39 -16 -4 37 -1 47 10 47 10 0 13 -6 9 -16 -3 -9 -6 -36 -6
-60 0 -24 -4 -44 -10 -44 -5 0 -21 21 -35 48 l-25 47 2 -47 c3 -37 0 -48 -12
-48 -12 0 -15 13 -15 60 0 69 15 79 43 29z m188 16 c15 -11 16 -14 4 -15 -9 0
-21 5 -27 11 -19 19 -53 -7 -53 -41 0 -33 28 -54 56 -43 12 4 15 3 10 -5 -20
-33 -86 4 -86 48 0 26 30 60 54 60 12 0 31 -7 42 -15z m144 -7 c0 -17 -3 -19
-12 -10 -17 17 -48 15 -48 -3 0 -8 9 -15 20 -15 11 0 20 -4 20 -10 0 -5 -9
-10 -20 -10 -11 0 -20 -7 -20 -15 0 -19 32 -33 38 -17 5 17 22 15 22 -3 0 -11
-11 -15 -37 -15 l-38 0 0 60 0 60 38 0 c31 0 37 -3 37 -22z m174 6 c24 -24 20
-78 -6 -98 l-23 -17 23 5 c12 2 22 0 22 -5 0 -19 -52 -8 -80 18 -33 29 -38 57
-14 91 18 26 56 29 78 6z m79 -27 c-6 -47 12 -72 42 -61 14 6 16 16 13 56 -4
40 -2 48 12 48 14 0 15 -7 10 -48 -7 -59 -15 -72 -44 -72 -32 0 -42 16 -48 73
-4 34 -2 47 7 47 9 0 11 -13 8 -43z m196 21 c0 -13 -3 -17 -6 -10 -7 17 -43
15 -43 -3 0 -8 7 -15 15 -15 8 0 15 -4 15 -10 0 -5 -7 -10 -15 -10 -8 0 -15
-9 -15 -20 0 -22 20 -26 38 -8 9 9 12 8 12 -5 0 -13 -9 -17 -37 -17 l-38 0 0
60 0 60 38 0 c32 0 37 -3 36 -22z m111 7 c10 -12 10 -15 -3 -15 -9 0 -18 4
-22 10 -7 11 -35 2 -35 -11 0 -5 8 -12 18 -16 9 -3 25 -13 34 -21 23 -19 6
-52 -26 -52 -24 0 -54 26 -42 37 3 4 12 -2 20 -12 8 -11 20 -16 30 -12 25 10
19 27 -14 38 -21 8 -30 17 -30 33 0 13 3 26 7 29 12 12 50 7 63 -8z m140 0 c0
-8 -4 -15 -10 -15 -5 0 -10 5 -10 10 0 6 -7 10 -16 10 -13 0 -15 -10 -12 -55
2 -44 0 -55 -12 -55 -12 0 -14 11 -12 55 3 35 0 55 -7 55 -6 0 -11 -4 -11 -10
0 -5 -4 -10 -10 -10 -5 0 -10 7 -10 15 0 12 13 15 55 15 42 0 55 -3 55 -15z
m-831 -77 c0 -31 -1 -32 -11 -10 -6 12 -17 22 -25 22 -7 0 -13 5 -13 10 0 6
11 10 25 10 22 0 25 -4 24 -32z m181 -18 c0 -5 -4 -10 -10 -10 -5 0 -10 5 -10
10 0 6 5 10 10 10 6 0 10 -4 10 -10z"/>
<path d="M2812 3215 c-18 -8 -37 -26 -42 -40 -6 -16 -10 -179 -10 -406 l0
-381 29 -29 c41 -40 91 -40 132 1 l30 29 -3 395 c-3 380 -4 396 -23 415 -28
26 -74 33 -113 16z"/>
<path d="M2070 3029 l0 -191 65 4 c55 3 70 8 93 31 25 26 27 33 30 134 6 176
-18 213 -138 213 l-50 0 0 -191z"/>
<path d="M1860 1935 c0 -8 9 -15 20 -15 11 0 20 7 20 15 0 8 -9 15 -20 15 -11
0 -20 -7 -20 -15z"/>
<path d="M2007 1944 c-13 -13 -7 -44 8 -44 16 0 17 5 6 33 -3 10 -10 15 -14
11z"/>
<path d="M2598 1949 c-22 -12 -24 -62 -3 -79 38 -32 84 32 50 70 -21 23 -23
23 -47 9z"/>
</g>
</svg>
